<?xml version="1.0" encoding="UTF-8"?>
<!DOCTYPE svg PUBLIC "-//W3C//DTD SVG 1.1//EN" "http://www.w3.org/Graphics/SVG/1.1/DTD/svg11.dtd">
<!-- Creator: CorelDRAW -->
<svg xmlns="http://www.w3.org/2000/svg" xml:space="preserve" width="206.052mm" height="230.479mm" version="1.1" style="shape-rendering:geometricPrecision; text-rendering:geometricPrecision; image-rendering:optimizeQuality; fill-rule:evenodd; clip-rule:evenodd"
viewBox="0 0 4801.42 5370.61"
 xmlns:xlink="http://www.w3.org/1999/xlink"
 xmlns:xodm="http://www.corel.com/coreldraw/odm/2003">
 <defs>
  <style type="text/css">
   <![CDATA[
    .fil2 {fill:none}
    .fil0 {fill:#4B71FC}
    .fil1 {fill:white;fill-rule:nonzero}
   ]]>
  </style>
   <clipPath id="id0">
    <path d="M-0 567.38l0 4235.85c0,436.12 472.12,708.69 849.8,490.63l3668.35 -2117.92c377.69,-218.06 377.69,-763.21 0,-981.26l-3668.35 -2117.92c-91.26,-52.69 -188.11,-76.73 -282.41,-76.75 -295.94,-0.03 -567.4,236.64 -567.4,567.38z"/>
   </clipPath>
 </defs>
 <g id="Layer_x0020_1">
  <metadata id="CorelCorpID_0Corel-Layer"/>
  <path class="fil0" d="M-0 567.38l0 4235.85c0,436.12 472.12,708.69 849.8,490.63l3668.35 -2117.92c377.69,-218.06 377.69,-763.21 0,-981.26l-3668.35 -2117.92c-91.26,-52.69 -188.11,-76.73 -282.41,-76.75 -295.94,-0.03 -567.4,236.64 -567.4,567.38z"/>
  <g style="clip-path:url(#id0)">
   <g id="_105553167922272">
    <g>
     <path id="_1" class="fil1" d="M1473.67 2514.18c0,133.13 -61.79,230.96 -184.99,293.85 -123.57,62.89 -311.13,95.62 -562.69,98.56l-2.21 11.77 0 21.7c0,74.66 22.43,132.4 66.93,173.96 44.5,41.19 106.65,61.79 186.46,61.79 54.43,0 112.91,-9.93 175.06,-29.42 62.15,-19.86 119.16,-45.23 170.64,-76.13l-43.03 214.41c-108.49,58.84 -228.02,88.26 -358.94,88.26 -142.69,0 -254.13,-39.72 -334.3,-119.53 -80.18,-79.8 -120.26,-191.98 -120.26,-337.24 0,-125.04 27.21,-241.99 82.01,-350.85 54.43,-108.49 130.56,-194.18 228.38,-256.34 97.83,-62.15 204.85,-93.05 321.06,-93.05 115.48,0 207.05,27.21 274.72,81.65 67.67,54.8 101.14,126.88 101.14,216.62zm-251.92 6.62c0,-36.04 -13.24,-64.36 -39.35,-85.69 -26.11,-21.33 -62.52,-31.63 -108.49,-31.63 -76.13,0 -144.9,30.89 -206.69,93.42 -61.79,62.52 -102.24,139.38 -121.73,230.59 317.38,0 476.26,-68.77 476.26,-206.69zm1362.96 -6.62c0,133.13 -61.79,230.96 -184.99,293.85 -123.57,62.89 -311.13,95.62 -562.69,98.56l-2.21 11.77 0 21.7c0,74.66 22.43,132.4 66.93,173.96 44.5,41.19 106.65,61.79 186.46,61.79 54.43,0 112.91,-9.93 175.06,-29.42 62.15,-19.86 119.16,-45.23 170.64,-76.13l-43.03 214.41c-108.49,58.84 -228.02,88.26 -358.94,88.26 -142.69,0 -254.13,-39.72 -334.3,-119.53 -80.18,-79.8 -120.26,-191.98 -120.26,-337.24 0,-125.04 27.21,-241.99 82.01,-350.85 54.43,-108.49 130.56,-194.18 228.38,-256.34 97.83,-62.15 204.85,-93.05 321.06,-93.05 115.48,0 207.05,27.21 274.72,81.65 67.67,54.8 101.14,126.88 101.14,216.62zm-251.92 6.62c0,-36.04 -13.24,-64.36 -39.35,-85.69 -26.11,-21.33 -62.52,-31.63 -108.49,-31.63 -76.13,0 -144.9,30.89 -206.69,93.42 -61.79,62.52 -102.24,139.38 -121.73,230.59 317.38,0 476.26,-68.77 476.26,-206.69zm1070.94 -77.6l-268.1 0 -105.55 498.69c-12.87,62.52 -19.49,104.81 -19.49,126.15 0,33.1 7.72,57 22.8,71.72 15.08,14.71 39.72,22.06 74.29,22.06 33.1,0 83.12,-12.87 150.78,-38.62l-43.03 203.38c-72.08,27.95 -143.06,42.29 -213.31,42.29 -170.28,0 -255.6,-83.12 -255.6,-248.98 0,-41.92 7.72,-96.36 22.8,-164.02l107.76 -512.67 -176.9 0 47.44 -200.44 171.38 0 57.01 -264.06 273.99 -72.08 -70.24 336.14 270.31 0 -46.34 200.44z"/>
    </g>
   </g>
  </g>
  <path class="fil2" d="M-0 567.38l0 4235.85c0,436.12 472.12,708.69 849.8,490.63l3668.35 -2117.92c377.69,-218.06 377.69,-763.21 0,-981.26l-3668.35 -2117.92c-91.26,-52.69 -188.11,-76.73 -282.41,-76.75 -295.94,-0.03 -567.4,236.64 -567.4,567.38z"/>
 </g>
</svg>
