<?xml version="1.0" encoding="UTF-8"?>
<!DOCTYPE svg PUBLIC "-//W3C//DTD SVG 1.1//EN" "http://www.w3.org/Graphics/SVG/1.1/DTD/svg11.dtd">
<!-- Creator: CorelDRAW -->
<svg xmlns="http://www.w3.org/2000/svg" xml:space="preserve" width="783.42mm" height="230.479mm" version="1.1" style="shape-rendering:geometricPrecision; text-rendering:geometricPrecision; image-rendering:optimizeQuality; fill-rule:evenodd; clip-rule:evenodd"
viewBox="0 0 69407.25 20419.31"
 xmlns:xlink="http://www.w3.org/1999/xlink"
 xmlns:xodm="http://www.corel.com/coreldraw/odm/2003">
 <defs>
  <style type="text/css">
   <![CDATA[
    .str0 {stroke:#3F4096;stroke-width:6.75;stroke-miterlimit:22.9256}
    .fil2 {fill:none}
    .fil0 {fill:#4B71FC}
    .fil1 {fill:white;fill-rule:nonzero}
    .fil4 {fill:#373535;fill-rule:nonzero}
    .fil3 {fill:url(#id1);fill-rule:nonzero}
   ]]>
  </style>
    <clipPath id="id0">
     <path d="M-0 2157.22l0 16104.9c0,1658.14 1795.01,2694.47 3231,1865.38l13947.25 -8052.44c1435.99,-829.06 1435.99,-2901.76 0,-3730.81l-13947.25 -8052.44c-346.99,-200.31 -715.2,-291.74 -1073.72,-291.8 -1125.19,-0.12 -2157.28,899.72 -2157.28,2157.21z"/>
    </clipPath>
  <linearGradient id="id1" gradientUnits="userSpaceOnUse" x1="20160.99" y1="12109.12" x2="69086.44" y2="11765.67">
   <stop offset="0" style="stop-opacity:1; stop-color:#2F57EF"/>
   <stop offset="1" style="stop-opacity:0.698039; stop-color:#B966E7"/>
  </linearGradient>
 </defs>
 <g id="Layer_x0020_1">
  <metadata id="CorelCorpID_0Corel-Layer"/>
  <g id="_105553168607584">
   <path class="fil0" d="M-0 2157.22l0 16104.9c0,1658.14 1795.01,2694.47 3231,1865.38l13947.25 -8052.44c1435.99,-829.06 1435.99,-2901.76 0,-3730.81l-13947.25 -8052.44c-346.99,-200.31 -715.2,-291.74 -1073.72,-291.8 -1125.19,-0.12 -2157.28,899.72 -2157.28,2157.21z"/>
   <g style="clip-path:url(#id0)">
    <g>
     <g>
      <path id="_1" class="fil1" d="M5602.96 9559.05c0,506.18 -234.91,878.12 -703.34,1117.23 -469.82,239.1 -1182.94,363.55 -2139.36,374.74l-8.39 44.74 0 82.5c0,283.85 85.29,503.38 254.48,661.39 169.2,156.6 405.5,234.91 708.93,234.91 206.95,0 429.27,-37.76 665.58,-111.87 236.31,-75.5 453.04,-171.98 648.8,-289.44l-163.6 815.2c-412.49,223.72 -866.93,335.58 -1364.72,335.58 -542.53,0 -966.21,-151.01 -1271.03,-454.44 -304.83,-303.42 -457.24,-729.9 -457.24,-1282.22 0,-475.41 103.47,-920.06 311.82,-1333.95 206.94,-412.5 496.39,-738.3 868.33,-974.6 371.94,-236.31 778.84,-353.77 1220.7,-353.77 439.06,0 787.23,103.47 1044.51,310.42 257.28,208.34 384.53,482.4 384.53,823.58zm-957.82 25.17c0,-137.03 -50.34,-244.7 -149.62,-325.8 -99.28,-81.1 -237.71,-120.25 -412.49,-120.25 -289.45,0 -550.92,117.46 -785.83,355.17 -234.92,237.7 -388.73,529.94 -462.83,876.72 1206.71,0 1810.77,-261.48 1810.77,-785.84zm5182.02 -25.17c0,506.18 -234.91,878.12 -703.34,1117.23 -469.82,239.1 -1182.94,363.55 -2139.36,374.74l-8.39 44.74 0 82.5c0,283.85 85.29,503.38 254.48,661.39 169.2,156.6 405.5,234.91 708.93,234.91 206.95,0 429.27,-37.76 665.58,-111.87 236.31,-75.5 453.04,-171.98 648.8,-289.44l-163.6 815.2c-412.49,223.72 -866.93,335.58 -1364.72,335.58 -542.53,0 -966.21,-151.01 -1271.03,-454.44 -304.83,-303.42 -457.24,-729.9 -457.24,-1282.22 0,-475.41 103.47,-920.06 311.82,-1333.95 206.94,-412.5 496.39,-738.3 868.33,-974.6 371.94,-236.31 778.84,-353.77 1220.7,-353.77 439.06,0 787.23,103.47 1044.51,310.42 257.28,208.34 384.53,482.4 384.53,823.58zm-957.82 25.17c0,-137.03 -50.34,-244.7 -149.62,-325.8 -99.28,-81.1 -237.71,-120.25 -412.49,-120.25 -289.45,0 -550.92,117.46 -785.83,355.17 -234.92,237.7 -388.73,529.94 -462.83,876.72 1206.71,0 1810.77,-261.48 1810.77,-785.84zm4071.78 -295.03l-1019.34 0 -401.31 1896.06c-48.94,237.71 -74.11,398.51 -74.11,479.61 0,125.85 29.37,216.73 86.7,272.67 57.33,55.93 151.01,83.89 282.45,83.89 125.84,0 316.01,-48.94 573.29,-146.82l-163.59 773.25c-274.07,106.27 -543.94,160.8 -811.01,160.8 -647.4,0 -971.8,-316.01 -971.8,-946.63 0,-159.4 29.36,-366.35 86.69,-623.63l409.7 -1949.2 -672.57 0 180.38 -762.07 651.59 0 216.74 -1003.96 1041.71 -274.06 -267.07 1278.02 1027.74 0 -176.19 762.07z"/>
     </g>
    </g>
   </g>
   <path class="fil2" d="M-0 2157.22l0 16104.9c0,1658.14 1795.01,2694.47 3231,1865.38l13947.25 -8052.44c1435.99,-829.06 1435.99,-2901.76 0,-3730.81l-13947.25 -8052.44c-346.99,-200.31 -715.2,-291.74 -1073.72,-291.8 -1125.19,-0.12 -2157.28,899.72 -2157.28,2157.21z"/>
   <path class="fil3" d="M22361.97 11048.65l4118.75 -13.87 146.46 -1659.07 -4118.76 13.87 172.6 -2101.45 4671.61 -15.73 159.57 -1866.44 -6910.66 23.28 -837.59 9843.73 7062.71 -23.8 145.75 -1866.4 -4796.01 16.16 185.58 -2350.28zm6707.54 -2883.65l-584.3 7078.58 2073.2 -6.99 332.13 -3981.7c79.9,-898.67 796.43,-1550.7 1598.05,-1553.4 829.29,-2.8 1259.8,603.9 1193.58,1461.06l-345.67 4064.69 2073.21 -6.99 372.1 -4424.12c146.3,-1700.54 -825.34,-2927.38 -2414.79,-2922.03 -926.03,3.13 -1795.19,475.99 -2359.31,1238.07l79.72 -953.96 -2017.91 6.8zm11752.75 5433.72c-1078.07,3.63 -1785.7,-809.46 -1692.73,-1929.31 106.71,-1147.55 946.97,-1993.49 2025.04,-1997.12 1078.06,-3.63 1785.79,837.09 1679.08,1984.64 -92.98,1119.86 -933.33,1938.16 -2011.39,1941.79zm-320.21 3414.98c-843.1,2.84 -1536.13,-575.32 -1649.39,-1376.59l-1865.19 213.61c74.61,1630.68 1529.84,2814.43 3464.83,2807.91 2239.07,-7.55 3906.92,-1353.85 4093.02,-3552.09l584.57 -6995.65 -2073.2 6.98 -66.27 843.34c-499.89,-689.39 -1261.46,-1101.47 -2256.6,-1098.11 -1948.8,6.56 -3491.48,1587.41 -3677.49,3813.31 -172.46,2142.91 1104.14,3631.32 3052.95,3624.76 981.31,-3.3 1809.24,-406.91 2428.92,-1086.27l-66.26 843.34c-106.43,1230.47 -919.47,1951.93 -1969.89,1955.47zm6552.12 -12088.25l-863.83 10258.46 2073.21 -6.98 863.83 -10258.47 -2073.21 6.99zm3742.48 3166.34l-598.11 7078.62 2087.01 -7.03 584.29 -7078.58 -2073.19 6.99zm1116.36 -943.63c704.88,-2.37 1242.29,-487.93 1295.24,-1179.19 66.82,-677.48 -390.91,-1159.68 -1095.8,-1157.31 -704.89,2.37 -1242.29,487.94 -1309.12,1165.42 -52.95,691.26 404.78,1173.47 1109.67,1171.09zm9017.15 5747.01c132.63,-1659.03 -1651.31,-1943.27 -3061.73,-2132.02 -802.06,-121.69 -1410.67,-257.87 -1370.77,-727.92 39.88,-470.07 591.6,-803.64 1227.39,-805.78 829.28,-2.79 1411.13,396.06 1371.62,976.7l1824.41 -6.15c119.6,-1424.01 -1169.23,-2442.45 -3062.75,-2436.08 -1727.67,5.82 -3120.28,1005.65 -3240.01,2388.21 -146.22,1728.18 1140.01,1972.63 2716.28,2160.83 843.38,80.08 1631.76,243.28 1578.48,837.79 -39.88,470.06 -619.17,831.38 -1379.35,833.94 -898.38,3.03 -1508.2,-492.5 -1455.28,-1197.57l-1755.32 5.91c-132.99,1548.46 1156.17,2663.65 3063.52,2657.23 1962.62,-6.61 3424.11,-1075.79 3543.51,-2555.09zm2004.72 -8023.23l-863.83 10258.46 2087.03 -7.03 332.11 -3981.7c79.91,-898.67 782.61,-1550.65 1598.07,-1553.4 815.5,11.07 1259.79,603.9 1193.56,1461.06l-345.65 4064.69 2073.19 -6.99 385.69 -4493.28c132.58,-1672.85 -825.1,-2858.27 -2456.02,-2852.77 -856.92,2.89 -1726.36,392.82 -2263.07,1085.7l345.95 -3981.76 -2087.03 7.03z"/>
   <path class="fil4 str0" d="M45507.97 18121.37c101.73,-410.24 455.13,-696.17 894.77,-697.59 448.61,-1.46 754.65,282.34 778.53,696.48l-1673.3 1.11zm-371.8 156.54c-60.38,694.91 407.95,1198.23 1107.76,1195.96 502.44,-1.63 990.33,-313.89 1168.28,-741.64l-332.15 -50.7c-124.62,285.19 -473.8,493.43 -828.2,494.58 -448.6,1.45 -763.73,-312.51 -774.3,-769.86l2036.68 -2.29c4.32,-47.48 13.14,-90.65 13.01,-129.49 60.46,-669.01 -394.34,-1155.12 -1085.18,-1152.88 -699.83,2.27 -1245.42,491.62 -1305.88,1156.31zm3881.28 1100.67l372.35 -1.2 237.19 -2723.47 1058.7 -3.44 30.29 -319.4 -2489.76 8.07 -30.28 319.4 1058.7 -3.43 -237.2 2723.47zm3940.19 -12.77l194.24 -2179.66 -345.43 1.13 -112.16 1277.58c-34.5,397.08 -401.33,691.68 -796.1,692.96 -403.74,1.31 -606.59,-278.5 -572.05,-662.64l112.07 -1303.47 -340.94 1.11 -112.07 1303.47c-51.88,556.79 272.53,961.35 846.75,959.49 314.02,-1.02 636.49,-153.09 810.6,-395.29l-25.84 306.44 340.93 -1.11zm1161.45 -543.12c-30.09,375.49 181.64,625.07 553.98,623.86 112.15,-0.36 260.12,-22.41 363.19,-52.95l25.97 -271.93c-89.63,26.18 -206.21,43.81 -277.99,44.05 -219.83,-3.61 -336.97,-145.62 -319.77,-357.1l116.38 -1355.26 587.67 -1.9 21.48 -271.91 -583.19 1.89 43.08 -509.3 -278.14 0.9 -92.42 509.46 -390.29 1.27 -21.48 271.91 372.34 -1.2 -120.82 1368.22zm3036.94 -1735.81c-708.8,2.29 -1249.9,491.63 -1310.28,1182.21 -60.41,686.27 398.88,1172.37 1107.67,1170.07 704.31,-2.28 1249.9,-491.63 1310.3,-1177.91 60.39,-690.57 -398.9,-1176.68 -1107.69,-1174.37zm-176.74 2054.47c-506.92,1.64 -835.7,-368.38 -788.13,-873.38 43.08,-509.3 436.57,-877.33 938.99,-878.96 502.44,-1.63 835.7,364.06 792.62,873.35 -47.58,505 -441.04,877.36 -943.49,878.99zm2197.2 -1974.72l-189.75 2179.64 340.93 -1.1 107.88 -1221.48c38.85,-435.92 297.96,-743.12 647.87,-744.25 94.21,-0.31 219.88,16.55 336.7,67.94l25.86 -302.13c-98.83,-38.52 -206.58,-59.74 -300.77,-59.44 -278.14,0.9 -506.43,144.03 -662.6,381.86l25.85 -302.13 -331.97 1.08zm2024.65 -6.56l-189.75 2179.65 345.43 -1.13 189.74 -2179.64 -345.42 1.12zm204.95 -401.95c139.07,-0.45 241.92,-95.72 254.92,-225.21 13.01,-129.49 -77.04,-219.81 -211.62,-219.37 -139.07,0.44 -241.93,91.39 -254.92,220.89 -13.01,129.49 77.04,224.13 211.62,223.69zm2086.79 2362.12c-502.44,1.63 -835.7,-368.38 -792.62,-873.36 47.58,-509.32 441.06,-877.35 943.49,-878.98 497.95,-1.61 835.69,364.06 788.13,873.37 -43.08,504.98 -445.53,877.37 -938.99,878.97zm1003.83 -1582.5c-167.01,-292.88 -477.19,-473.1 -867.47,-471.83 -677.39,2.19 -1209.49,500.13 -1269.91,1182.08 -60.43,677.64 385.42,1172.42 1062.81,1170.22 394.77,-1.28 735.07,-183.61 953.88,-473.42l-34.54 384.14 340.94 -1.11 194.24 -2179.66 -345.42 1.13 -34.53 388.45zm1364.85 -1385.2l-275.99 3172.35 340.93 -1.1 280.48 -3172.37 -345.42 1.12zm2948.72 2536.24c43.17,-483.41 -486.5,-572.3 -894.97,-640.02 -408.47,-63.4 -592.61,-127.52 -575.35,-321.75 21.68,-215.81 272.35,-371.96 563.94,-372.91 367.86,-1.2 624.2,179.2 602.64,429.54l336.48 3.22c34.38,-427.29 -348.02,-736.72 -908.77,-734.91 -488.98,1.59 -891.75,283.35 -926.29,667.49 -43.14,492.04 347.39,559.82 854.58,635.84 242.37,33.74 637.35,92.87 615.88,364.77 -21.66,220.13 -285.75,384.95 -635.67,386.09 -385.81,1.25 -646.74,-213.65 -620.89,-515.78l-336.45 1.09c-43.22,470.48 348.28,814.4 931.47,812.51 542.8,-1.75 958.95,-305.16 993.4,-715.18z"/>
  </g>
 </g>
</svg>
