<?xml version="1.0" encoding="UTF-8"?>
<svg xmlns="http://www.w3.org/2000/svg" xmlns:xlink="http://www.w3.org/1999/xlink" width="500pt" height="500pt" viewBox="0 0 500 500" version="1.1">
<g id="surface1">
<path style=" stroke:none;fill-rule:nonzero;fill:#CA110D;fill-opacity:1;" d="M 248.015625 19.839844 C 122.1875 19.839844 19.839844 122.1875 19.839844 248.015625 C 19.839844 373.84375 122.1875 476.191406 248.015625 476.191406 C 373.84375 476.191406 476.191406 373.84375 476.191406 248.015625 C 476.191406 122.1875 373.84375 19.839844 248.015625 19.839844 Z M 232.128906 145.824219 C 232.128906 143.847656 233.136719 141.871094 236.117188 141.871094 L 258.945313 141.871094 C 260.921875 141.871094 262.898438 142.839844 262.898438 145.824219 L 262.898438 279.753906 C 262.898438 281.730469 261.890625 283.746094 258.945313 283.746094 L 236.117188 283.746094 C 234.140625 283.746094 232.128906 282.738281 232.128906 279.753906 Z M 263.90625 350.207031 C 263.90625 352.183594 262.898438 354.160156 259.914063 354.160156 L 236.117188 354.160156 C 234.140625 354.160156 232.128906 353.191406 232.128906 350.207031 L 232.128906 324.398438 C 232.128906 322.421875 233.136719 320.445313 236.117188 320.445313 L 259.914063 320.445313 C 261.890625 320.445313 263.90625 321.414063 263.90625 324.398438 Z "/>
</g>
</svg>
