<?xml version="1.0" encoding="UTF-8"?>
<svg xmlns="http://www.w3.org/2000/svg" xmlns:xlink="http://www.w3.org/1999/xlink" width="480pt" height="480pt" viewBox="0 0 480 480" version="1.1">
<g id="surface1">
<path style=" stroke:none;fill-rule:nonzero;fill:#D7D604;fill-opacity:1;" d="M 236.84375 47.367188 C 132.175781 47.367188 47.367188 132.175781 47.367188 236.84375 C 47.367188 341.507813 132.175781 426.316406 236.84375 426.316406 C 341.507813 426.316406 426.316406 341.507813 426.316406 236.84375 C 426.316406 132.175781 341.507813 47.367188 236.84375 47.367188 Z M 236.964844 347.367188 C 208.410156 347.367188 180.097656 336.390625 158.695313 314.988281 C 137.664063 293.957031 126.4375 265.890625 126.5 236.84375 L 94.738281 236.84375 L 142.105469 189.472656 L 189.472656 236.84375 L 158.019531 236.84375 C 158.019531 257.566406 166.035156 277.671875 181.023438 292.660156 C 207.855469 319.550781 250.042969 323.5 281.375 302.097656 L 299.199219 328.125 C 280.261719 341.078125 258.550781 347.367188 236.964844 347.367188 Z M 331.578125 284.210938 L 284.210938 236.84375 L 315.667969 236.84375 C 315.667969 216.117188 307.648438 196.011719 292.660156 181.023438 C 265.769531 154.132813 223.644531 150.246094 192.3125 171.585938 L 174.484375 145.558594 C 218.339844 115.582031 277.363281 121.136719 314.988281 158.695313 C 336.019531 179.730469 347.183594 207.792969 347.183594 236.84375 L 378.949219 236.84375 Z "/>
</g>
</svg>
